Incest, necrophilia, and Joe Dallesandro? It must be Andy Warhol. Warhol did indeed co-produce this 1973 schlock spectacular -- originally presented in 3D -- that was directed by Factory fave Paul Morrissey. Starring Udo Kier in the role of "Ze Baron," Flesh for Frankenstein is a horror story for a new 'n' lewd generation. This time around, the mad scientist has created the nymphomaniacally-inclined Adam and Eve, whose mission it is to spawn a new race. Along for the ride --somewhat literally -- is a lusty stable boy (Dallesandro) who main duty it is to entertain the Baron's equally lusty wife/sister. Sex, gore, unconvincing bat attacks, and the highest camp this side of the Appalachian Trail combine for a dizzyingly outrageous midnight movie.

   General
      Complete name : Flesh for Frankenstein.avi
      Format : AVI
      Format/Info : Audio Video Interleave
      File size : 1.31 GiB
      Duration : 1h 34mn
      Overall bit rate : 1 969 Kbps
      Writing application : VirtualDubMod 1.5.10.2 (build 2540/release)
      Writing library : VirtualDubMod build 2540/release
   Video #0
      ID : 0
      Format : MPEG-4 Visual
      Format profile : AdvancedSimple@L5
      Format settings, BVOP : Yes
      Format settings, QPel : No
      Format settings, GMC : No warppoints
      Format settings, Matrix : Default (MPEG)
      Muxing mode : Packed bitstream
      Codec ID : XVID
      Codec ID/Hint : XviD
      Duration : 1h 34mn
      Bit rate : 1 736 Kbps
      Width : 704 pixels
      Height : 288 pixels
      Display aspect ratio : 2.40:1
      Frame rate : 23.976 fps
      Resolution : 24 bits
      Colorimetry : 4:2:0
      Scan type : Progressive
      Bits/(Pixel*Frame) : 0.357
      Stream size : 1.15 GiB (88%)
      Writing library : XviD 1.2.0.dev47 (UTC 2006-11-01)
   Audio #1
      ID : 1
      Format : AC-3
      Format/Info : Audio Coding 3
      Codec ID : 2000
      Duration : 1h 34mn
      Bit rate mode : Constant
      Bit rate : 224 Kbps
      Channel(s) : 2 channels
      Channel positions : L R
      Sampling rate : 48.0 KHz
      Stream size : 152 MiB (11%)
      Alignment : Split accross interleaves
      Interleave, duration : 42 ms (1.00 video frame)
      Interleave, preload duration : 500 ms
 
http://www.imdb.com/title/tt0071508/

English audio; Spanish, French and Portuguese subtitles

My rip of the Image Entertainment DVD

Paul Morrissey, Antonio Margheriti - Flesh for Frankenstein (1973)